<svg xmlns="http://www.w3.org/2000/svg" viewBox="0 0 1200 146" width="1200" height="146" role="img" aria-label="Conectemos en LinkedIn: carlos-calderon-palacios."><rect width="1200" height="146" fill="#ffffff"/><line x1="0" y1="1" x2="1200" y2="1" stroke="#e8ebef" stroke-width="1.5"/><text x="0" y="38" font-family="ui-sans-serif, system-ui, -apple-system, Segoe UI, Roboto, Helvetica, Arial, sans-serif" font-size="13" font-weight="600" fill="#59636e" letter-spacing="2.2">CONTACTO</text><g opacity="0"><animate attributeName="opacity" from="0" to="1" begin="0.25s" dur="0.5s" fill="freeze"/><rect x="0" y="58" width="432" height="62" rx="31.0" fill="#0969da"/><rect x="30" y="75" width="28" height="28" rx="5" fill="#ffffff"/><rect x="35.5" y="86" width="4.5" height="11.5" fill="#0969da"/><circle cx="37.75" cy="82" r="2.6" fill="#0969da"/><path d="M43.5,97.5 v-11.5 h4.3 v1.6 a5,5 0 0 1 8.2,4.1 v5.8 h-4.4 v-5.2 a2.4,2.4 0 0 0 -4.8,0 v5.2 z" fill="#0969da"/><text x="76" y="98" font-family="ui-sans-serif, system-ui, -apple-system, Segoe UI, Roboto, Helvetica, Arial, sans-serif" font-size="22" font-weight="600" fill="#ffffff" letter-spacing="-0.2">Conectemos en LinkedIn</text><g stroke="#ffffff" stroke-width="2.4" stroke-linecap="round" stroke-linejoin="round" fill="none"><path d="M374,98 L390,82"/><path d="M379,82 L390,82 L390,93"/></g></g></svg>
