<svg xmlns="http://www.w3.org/2000/svg" viewBox="0 0 1200 320" width="1200" height="320" role="img" aria-label="Carlos Calderón, desarrollador frontend. Serie temporal de marea dibujada como fondo.">
  <defs>
    <linearGradient id="fade" x1="0" y1="0" x2="0" y2="1">
      <stop offset="0%" stop-color="#4cc2ff" stop-opacity="0.22"/>
      <stop offset="100%" stop-color="#4cc2ff" stop-opacity="0"/>
    </linearGradient>
    <clipPath id="sweep"><rect x="0" y="0" width="0" height="320">
      <animate attributeName="width" from="0" to="1200" dur="1.6s" fill="freeze" calcMode="spline" keySplines="0.22 1 0.36 1" keyTimes="0;1" values="0;1200"/>
    </rect></clipPath>
  </defs>

  <line x1="0" y1="164" x2="1200" y2="164" stroke="#21262d" stroke-width="1"/><line x1="0" y1="218" x2="1200" y2="218" stroke="#21262d" stroke-width="1"/><line x1="0" y1="272" x2="1200" y2="272" stroke="#21262d" stroke-width="1"/><line x1="0" y1="286" x2="0" y2="292" stroke="#21262d" stroke-width="1"/><line x1="150" y1="286" x2="150" y2="292" stroke="#21262d" stroke-width="1"/><line x1="300" y1="286" x2="300" y2="292" stroke="#21262d" stroke-width="1"/><line x1="450" y1="286" x2="450" y2="292" stroke="#21262d" stroke-width="1"/><line x1="600" y1="286" x2="600" y2="292" stroke="#21262d" stroke-width="1"/><line x1="750" y1="286" x2="750" y2="292" stroke="#21262d" stroke-width="1"/><line x1="900" y1="286" x2="900" y2="292" stroke="#21262d" stroke-width="1"/><line x1="1050" y1="286" x2="1050" y2="292" stroke="#21262d" stroke-width="1"/><line x1="1200" y1="286" x2="1200" y2="292" stroke="#21262d" stroke-width="1"/>

  <g clip-path="url(#sweep)">
    <polygon points="0,286 0.0,199.8 3.8,197.3 7.5,194.9 11.2,192.6 15.0,190.4 18.8,188.2 22.5,186.2 26.2,184.3 30.0,182.5 33.8,180.9 37.5,179.3 41.2,177.9 45.0,176.5 48.8,175.4 52.5,174.3 56.2,173.3 60.0,172.5 63.8,171.8 67.5,171.2 71.2,170.8 75.0,170.4 78.8,170.2 82.5,170.0 86.2,170.0 90.0,170.1 93.8,170.2 97.5,170.4 101.2,170.8 105.0,171.2 108.8,171.6 112.5,172.2 116.2,172.7 120.0,173.4 123.8,174.1 127.5,174.8 131.2,175.5 135.0,176.3 138.8,177.1 142.5,177.9 146.2,178.7 150.0,179.6 153.8,180.4 157.5,181.2 161.2,182.1 165.0,182.9 168.8,183.7 172.5,184.4 176.2,185.2 180.0,185.9 183.8,186.6 187.5,187.3 191.2,188.0 195.0,188.6 198.8,189.2 202.5,189.8 206.2,190.4 210.0,190.9 213.8,191.5 217.5,192.0 221.2,192.5 225.0,193.0 228.8,193.5 232.5,194.0 236.2,194.4 240.0,194.9 243.8,195.4 247.5,195.9 251.2,196.5 255.0,197.0 258.8,197.6 262.5,198.3 266.2,198.9 270.0,199.6 273.8,200.4 277.5,201.2 281.2,202.0 285.0,202.9 288.8,203.9 292.5,205.0 296.2,206.1 300.0,207.3 303.8,208.5 307.5,209.8 311.2,211.3 315.0,212.7 318.8,214.3 322.5,215.9 326.2,217.6 330.0,219.4 333.8,221.2 337.5,223.1 341.2,225.1 345.0,227.1 348.8,229.2 352.5,231.4 356.2,233.6 360.0,235.8 363.8,238.0 367.5,240.3 371.2,242.6 375.0,245.0 378.8,247.3 382.5,249.6 386.2,251.9 390.0,254.2 393.8,256.5 397.5,258.7 401.2,260.9 405.0,263.1 408.8,265.1 412.5,267.1 416.2,269.1 420.0,270.9 423.8,272.7 427.5,274.3 431.2,275.8 435.0,277.3 438.8,278.6 442.5,279.7 446.2,280.7 450.0,281.6 453.8,282.4 457.5,283.0 461.2,283.4 465.0,283.7 468.8,283.8 472.5,283.8 476.2,283.6 480.0,283.2 483.8,282.7 487.5,282.0 491.2,281.1 495.0,280.1 498.8,279.0 502.5,277.7 506.2,276.2 510.0,274.6 513.8,272.9 517.5,271.0 521.2,269.0 525.0,266.9 528.8,264.7 532.5,262.3 536.2,259.9 540.0,257.4 543.8,254.8 547.5,252.2 551.2,249.5 555.0,246.7 558.8,243.9 562.5,241.1 566.2,238.3 570.0,235.4 573.8,232.6 577.5,229.8 581.2,227.0 585.0,224.2 588.8,221.4 592.5,218.7 596.2,216.1 600.0,213.5 603.8,211.0 607.5,208.6 611.2,206.2 615.0,204.0 618.8,201.8 622.5,199.7 626.2,197.8 630.0,195.9 633.8,194.2 637.5,192.6 641.2,191.1 645.0,189.7 648.8,188.5 652.5,187.3 656.2,186.3 660.0,185.4 663.8,184.7 667.5,184.0 671.2,183.4 675.0,183.0 678.8,182.7 682.5,182.5 686.2,182.3 690.0,182.3 693.8,182.3 697.5,182.5 701.2,182.7 705.0,183.0 708.8,183.3 712.5,183.8 716.2,184.2 720.0,184.8 723.8,185.3 727.5,185.9 731.2,186.5 735.0,187.2 738.8,187.9 742.5,188.6 746.2,189.3 750.0,190.0 753.8,190.6 757.5,191.3 761.2,192.0 765.0,192.7 768.8,193.3 772.5,194.0 776.2,194.6 780.0,195.1 783.8,195.7 787.5,196.2 791.2,196.7 795.0,197.2 798.8,197.7 802.5,198.1 806.2,198.5 810.0,198.9 813.8,199.2 817.5,199.6 821.2,199.9 825.0,200.2 828.8,200.6 832.5,200.9 836.2,201.2 840.0,201.5 843.8,201.8 847.5,202.1 851.2,202.5 855.0,202.9 858.8,203.3 862.5,203.7 866.2,204.2 870.0,204.7 873.8,205.2 877.5,205.9 881.2,206.5 885.0,207.2 888.8,208.0 892.5,208.9 896.2,209.8 900.0,210.8 903.8,211.8 907.5,213.0 911.2,214.2 915.0,215.4 918.8,216.8 922.5,218.2 926.2,219.7 930.0,221.3 933.8,222.9 937.5,224.6 941.2,226.4 945.0,228.2 948.8,230.1 952.5,232.1 956.2,234.1 960.0,236.1 963.8,238.1 967.5,240.2 971.2,242.3 975.0,244.4 978.8,246.6 982.5,248.7 986.2,250.8 990.0,252.9 993.8,255.0 997.5,257.0 1001.2,259.0 1005.0,260.9 1008.8,262.8 1012.5,264.6 1016.2,266.3 1020.0,268.0 1023.8,269.5 1027.5,270.9 1031.2,272.3 1035.0,273.5 1038.8,274.6 1042.5,275.6 1046.2,276.4 1050.0,277.1 1053.8,277.6 1057.5,278.0 1061.2,278.3 1065.0,278.4 1068.8,278.3 1072.5,278.1 1076.2,277.7 1080.0,277.2 1083.8,276.5 1087.5,275.6 1091.2,274.6 1095.0,273.4 1098.8,272.0 1102.5,270.5 1106.2,268.9 1110.0,267.1 1113.8,265.2 1117.5,263.2 1121.2,261.0 1125.0,258.7 1128.8,256.4 1132.5,253.9 1136.2,251.3 1140.0,248.6 1143.8,245.9 1147.5,243.1 1151.2,240.2 1155.0,237.3 1158.8,234.4 1162.5,231.4 1166.2,228.5 1170.0,225.5 1173.8,222.5 1177.5,219.5 1181.2,216.6 1185.0,213.6 1188.8,210.8 1192.5,207.9 1196.2,205.2 1200.0,202.5 1200,286" fill="url(#fade)"/>
    <polyline points="0.0,199.8 3.8,197.3 7.5,194.9 11.2,192.6 15.0,190.4 18.8,188.2 22.5,186.2 26.2,184.3 30.0,182.5 33.8,180.9 37.5,179.3 41.2,177.9 45.0,176.5 48.8,175.4 52.5,174.3 56.2,173.3 60.0,172.5 63.8,171.8 67.5,171.2 71.2,170.8 75.0,170.4 78.8,170.2 82.5,170.0 86.2,170.0 90.0,170.1 93.8,170.2 97.5,170.4 101.2,170.8 105.0,171.2 108.8,171.6 112.5,172.2 116.2,172.7 120.0,173.4 123.8,174.1 127.5,174.8 131.2,175.5 135.0,176.3 138.8,177.1 142.5,177.9 146.2,178.7 150.0,179.6 153.8,180.4 157.5,181.2 161.2,182.1 165.0,182.9 168.8,183.7 172.5,184.4 176.2,185.2 180.0,185.9 183.8,186.6 187.5,187.3 191.2,188.0 195.0,188.6 198.8,189.2 202.5,189.8 206.2,190.4 210.0,190.9 213.8,191.5 217.5,192.0 221.2,192.5 225.0,193.0 228.8,193.5 232.5,194.0 236.2,194.4 240.0,194.9 243.8,195.4 247.5,195.9 251.2,196.5 255.0,197.0 258.8,197.6 262.5,198.3 266.2,198.9 270.0,199.6 273.8,200.4 277.5,201.2 281.2,202.0 285.0,202.9 288.8,203.9 292.5,205.0 296.2,206.1 300.0,207.3 303.8,208.5 307.5,209.8 311.2,211.3 315.0,212.7 318.8,214.3 322.5,215.9 326.2,217.6 330.0,219.4 333.8,221.2 337.5,223.1 341.2,225.1 345.0,227.1 348.8,229.2 352.5,231.4 356.2,233.6 360.0,235.8 363.8,238.0 367.5,240.3 371.2,242.6 375.0,245.0 378.8,247.3 382.5,249.6 386.2,251.9 390.0,254.2 393.8,256.5 397.5,258.7 401.2,260.9 405.0,263.1 408.8,265.1 412.5,267.1 416.2,269.1 420.0,270.9 423.8,272.7 427.5,274.3 431.2,275.8 435.0,277.3 438.8,278.6 442.5,279.7 446.2,280.7 450.0,281.6 453.8,282.4 457.5,283.0 461.2,283.4 465.0,283.7 468.8,283.8 472.5,283.8 476.2,283.6 480.0,283.2 483.8,282.7 487.5,282.0 491.2,281.1 495.0,280.1 498.8,279.0 502.5,277.7 506.2,276.2 510.0,274.6 513.8,272.9 517.5,271.0 521.2,269.0 525.0,266.9 528.8,264.7 532.5,262.3 536.2,259.9 540.0,257.4 543.8,254.8 547.5,252.2 551.2,249.5 555.0,246.7 558.8,243.9 562.5,241.1 566.2,238.3 570.0,235.4 573.8,232.6 577.5,229.8 581.2,227.0 585.0,224.2 588.8,221.4 592.5,218.7 596.2,216.1 600.0,213.5 603.8,211.0 607.5,208.6 611.2,206.2 615.0,204.0 618.8,201.8 622.5,199.7 626.2,197.8 630.0,195.9 633.8,194.2 637.5,192.6 641.2,191.1 645.0,189.7 648.8,188.5 652.5,187.3 656.2,186.3 660.0,185.4 663.8,184.7 667.5,184.0 671.2,183.4 675.0,183.0 678.8,182.7 682.5,182.5 686.2,182.3 690.0,182.3 693.8,182.3 697.5,182.5 701.2,182.7 705.0,183.0 708.8,183.3 712.5,183.8 716.2,184.2 720.0,184.8 723.8,185.3 727.5,185.9 731.2,186.5 735.0,187.2 738.8,187.9 742.5,188.6 746.2,189.3 750.0,190.0 753.8,190.6 757.5,191.3 761.2,192.0 765.0,192.7 768.8,193.3 772.5,194.0 776.2,194.6 780.0,195.1 783.8,195.7 787.5,196.2 791.2,196.7 795.0,197.2 798.8,197.7 802.5,198.1 806.2,198.5 810.0,198.9 813.8,199.2 817.5,199.6 821.2,199.9 825.0,200.2 828.8,200.6 832.5,200.9 836.2,201.2 840.0,201.5 843.8,201.8 847.5,202.1 851.2,202.5 855.0,202.9 858.8,203.3 862.5,203.7 866.2,204.2 870.0,204.7 873.8,205.2 877.5,205.9 881.2,206.5 885.0,207.2 888.8,208.0 892.5,208.9 896.2,209.8 900.0,210.8 903.8,211.8 907.5,213.0 911.2,214.2 915.0,215.4 918.8,216.8 922.5,218.2 926.2,219.7 930.0,221.3 933.8,222.9 937.5,224.6 941.2,226.4 945.0,228.2 948.8,230.1 952.5,232.1 956.2,234.1 960.0,236.1 963.8,238.1 967.5,240.2 971.2,242.3 975.0,244.4 978.8,246.6 982.5,248.7 986.2,250.8 990.0,252.9 993.8,255.0 997.5,257.0 1001.2,259.0 1005.0,260.9 1008.8,262.8 1012.5,264.6 1016.2,266.3 1020.0,268.0 1023.8,269.5 1027.5,270.9 1031.2,272.3 1035.0,273.5 1038.8,274.6 1042.5,275.6 1046.2,276.4 1050.0,277.1 1053.8,277.6 1057.5,278.0 1061.2,278.3 1065.0,278.4 1068.8,278.3 1072.5,278.1 1076.2,277.7 1080.0,277.2 1083.8,276.5 1087.5,275.6 1091.2,274.6 1095.0,273.4 1098.8,272.0 1102.5,270.5 1106.2,268.9 1110.0,267.1 1113.8,265.2 1117.5,263.2 1121.2,261.0 1125.0,258.7 1128.8,256.4 1132.5,253.9 1136.2,251.3 1140.0,248.6 1143.8,245.9 1147.5,243.1 1151.2,240.2 1155.0,237.3 1158.8,234.4 1162.5,231.4 1166.2,228.5 1170.0,225.5 1173.8,222.5 1177.5,219.5 1181.2,216.6 1185.0,213.6 1188.8,210.8 1192.5,207.9 1196.2,205.2 1200.0,202.5" fill="none" stroke="#4cc2ff" stroke-width="2.5"
              stroke-linecap="round" stroke-linejoin="round"/>
    <circle cx="86.2" cy="170.0" r="3.5" fill="#4cc2ff"/><circle cx="690.0" cy="182.3" r="3.5" fill="#4cc2ff"/>
  </g>

  <text x="0" y="62" font-family="ui-sans-serif, system-ui, -apple-system, Segoe UI, Roboto, Helvetica, Arial, sans-serif"
        font-size="44" font-weight="600" fill="#e6edf3" letter-spacing="-0.5">Carlos Calderón</text>
  <text x="2" y="98" font-family="ui-sans-serif, system-ui, -apple-system, Segoe UI, Roboto, Helvetica, Arial, sans-serif"
        font-size="19" font-weight="400" fill="#9198a1">Desarrollador frontend · Vue 3</text>
  <text x="2" y="124" font-family="ui-sans-serif, system-ui, -apple-system, Segoe UI, Roboto, Helvetica, Arial, sans-serif"
        font-size="15" font-weight="400" fill="#9198a1" opacity="0.85">Visualización de datos científicos y medioambientales</text>
</svg>
